<?xml version="1.0" encoding="UTF-8"?>
<svg width="32mm" height="32mm" version="1.1" viewBox="0 0 32 32" xmlns="http://www.w3.org/2000/svg">
 <style>
   .favicon-main { fill: #242124; }
   @media (prefers-color-scheme: dark) {
     .favicon-main { fill: #f1f5f9; }
   }
 </style>
 <path class="favicon-main" d="m15.942 0c-8.8564 0-15.986 7.1297-15.986 15.986 0 8.8564 7.1297 15.986 15.986 15.986h0.043925c8.8564 0 15.986-7.1297 15.986-15.986 0-8.8564-7.1297-15.986-15.986-15.986h-0.043925zm-11.751 8.5323h2.0319v7.0895h2.4386l3.6577-7.0895h2.2123l-4.0866 7.9473 4.3124 8.5349h-2.3254l-3.838-7.6088h-2.3709v7.6088h-2.0319v-16.482zm13.547 0h2.0319v7.0895h2.4381l3.6577-7.0895h2.2128l-4.0866 7.9473 4.3124 8.5349h-2.3254l-3.8385-7.6088h-2.3704v7.6088h-2.0319v-16.482z" stroke-width=".26458"/>
</svg>
